<svg role="img" height="24" width="19" viewBox="0 0 24 19"  xmlns="http://www.w3.org/2000/svg">
<title>Discord</title>
<g clip-path="url(#clip0)">
<path d="M19.9601 1.44292C18.4302 0.725703 16.7896 0.197289 15.0743-0.105356C15.043-0.111197 15.0118-0.0965997 14.9957-0.0674053C14.7848 0.316008 14.551 0.816202 14.3874 1.20935C12.5424 0.927149 10.7069 0.927149 8.89979 1.20935C8.73609 0.807463 8.49389 0.316008 8.28195-0.0674053C8.26586-0.0956257 8.23465-0.110223 8.20341-0.105356C6.48902 0.196322 4.84843 0.724736 3.31757 1.44292C3.30432 1.44876 3.29296 1.4585 3.28542 1.47114C0.173564 6.22107-0.678904 10.8542-0.260712 15.43C-0.25882 15.4524-0.24652 15.4738-0.22949 15.4874C1.82363 17.0279 3.81242 17.9631 5.76428 18.5829C5.79552 18.5927 5.82862 18.581 5.8485 18.5547C6.31021 17.9105 6.72179 17.2313 7.07467 16.517C7.0955 16.4751 7.07562 16.4255 7.03305 16.4089C6.38023 16.1559 5.7586 15.8474 5.16064 15.4971C5.11334 15.4689 5.10956 15.3998 5.15307 15.3667C5.2789 15.2704 5.40477 15.1701 5.52492 15.0689C5.54666 15.0504 5.57695 15.0465 5.60251 15.0582C9.53085 16.8907 13.7837 16.8907 17.6657 15.0582C17.6913 15.0456 17.7216 15.0495 17.7443 15.0679C17.8644 15.1692 17.9903 15.2704 18.1171 15.3667C18.1606 15.3998 18.1577 15.4689 18.1104 15.4971C17.5125 15.8542 16.8908 16.1559 16.2371 16.408C16.1945 16.4245 16.1756 16.4751 16.1964 16.517C16.5569 17.2303 16.9684 17.9095 17.4216 18.5538C17.4406 18.581 17.4746 18.5927 17.5058 18.5829C19.4672 17.9631 21.4559 17.0279 23.5091 15.4874C23.5271 15.4738 23.5384 15.4533 23.5403 15.4309C24.0408 10.1409 22.702 5.54571 19.9913 1.47211C19.9847 1.4585 19.9734 1.44876 19.9601 1.44292ZM7.66131 12.6438C6.47861 12.6438 5.5041 11.5345 5.5041 10.172C5.5041 8.80963 6.45971 7.70027 7.66131 7.70027C8.87234 7.70027 9.83741 8.81937 9.81848 10.172C9.81848 11.5345 8.86287 12.6438 7.66131 12.6438ZM15.6372 12.6438C14.4545 12.6438 13.48 11.5345 13.48 10.172C13.48 8.80963 14.4356 7.70027 15.6372 7.70027C16.8483 7.70027 17.8133 8.81937 17.7944 10.172C17.7944 11.5345 16.8483 12.6438 15.6372 12.6438Z" fill-rule="nonzero" opacity="1" stroke="none"/>
</g>
<defs>
<clipPath id="clip0">
<rect width="24" height="19" fill="white"/>
</clipPath>
</defs>
</svg>
